<?xml version="1.0" encoding="utf-8"?>
<!-- Generator: Adobe Illustrator 16.0.0, SVG Export Plug-In . SVG Version: 6.00 Build 0)  -->
<!DOCTYPE svg PUBLIC "-//W3C//DTD SVG 1.1//EN" "http://www.w3.org/Graphics/SVG/1.1/DTD/svg11.dtd">
<svg version="1.1" id="Layer_1" xmlns="http://www.w3.org/2000/svg" xmlns:xlink="http://www.w3.org/1999/xlink" x="0px" y="0px"
	 width="200px" height="200px" viewBox="0 0 200 200" enable-background="new 0 0 200 200" xml:space="preserve">
<g>
	<g>
		<path fill-rule="evenodd" clip-rule="evenodd" fill="#FFCF01" d="M145.597,97.409c-0.144,33.35-26.549,52.92-59.44,43.905
			c-25.97-7.118-37.324-27.757-28.701-53.416c6.189-18.419,17.084-32.594,37.801-35.972c24.64-4.019,44.71,10.394,49.05,35.116
			C144.907,90.468,145.175,93.953,145.597,97.409z M96.516,132.826c3.01-0.255,5.73-0.267,8.367-0.746
			c10.218-1.858,19.777-5.175,25.69-14.496c11.865-18.703,4.019-45.405-16.068-54.7c-2.946-1.363-6.41-2.544-9.543-2.349
			c-5.124,0.319-10.162,1.901-15.258,2.836c-6.256,1.147-11.14,4.42-14.844,9.474c-5.514,7.526-9.227,15.852-10.63,25.122
			c-2.699,17.832,5.602,29.994,23.157,33.773C90.465,132.403,93.664,132.5,96.516,132.826z"/>
		<path fill-rule="evenodd" clip-rule="evenodd" fill="#FFCF01" d="M80.896,173.652c0.415-15.339,11.85-24.268,26.456-20.129
			c6.218,1.762,9.396,6.777,10.968,12.686c2.496,9.392-2.647,20.946-11.146,25.681c-9.775,5.444-19.98,1.862-23.984-8.647
			C82.029,180.197,81.64,176.857,80.896,173.652z M107.114,164.755c-3.451,0.653-6.165,2.072-8.07,1.354
			c-5.107-1.931-6.372,0.94-6.764,4.694c-0.269,2.579-0.056,5.466,0.891,7.836c0.875,2.19,3.715,5.751,4.479,5.467
			c3.965-1.48,9.303-3.172,10.806-6.367C110.296,173.828,109.796,168.167,107.114,164.755z"/>
		<path fill-rule="evenodd" clip-rule="evenodd" fill="#FFCF01" d="M118.828,28.162c0.025,11.061-5.763,17.998-15.6,19.264
			c-5.617,0.722-9.473-1.484-12.446-5.938c-5.334-7.991-5.298-21.347,0.089-29.337c5.664-8.4,16.252-8.814,22.438-0.794
			C117.108,16.281,119.015,21.895,118.828,28.162z M96.306,25.886c0.044,6.212,2.9,10.506,6.638,10.414
			c3.23-0.079,6.014-3.984,6.022-8.449c0.011-5.217-3.557-9.861-7.8-9.704C95.579,18.354,97.195,23.151,96.306,25.886z"/>
		<path fill-rule="evenodd" clip-rule="evenodd" fill="#FFCF01" d="M50.855,133.63c-0.062,11.583-6.903,19.164-16.929,18.636
			c-7.047-0.371-11.308-4.673-13.833-10.737c-3.361-8.073-3.754-16.243,2.126-23.365c3.997-4.84,9.612-6.632,15.865-5.189
			C45.675,114.724,50.909,123.35,50.855,133.63z M42.802,135.027c-1.769-3.591-2.478-6.854-4.498-8.617
			c-1.979-1.727-5.274-2.376-8.03-2.479c-0.682-0.026-1.901,3.849-2.162,6.016c-0.252,2.107,0.105,4.418,0.735,6.474
			c1.134,3.699,3.674,7.274,7.636,6.008C39.046,141.61,40.629,137.725,42.802,135.027z"/>
		<path fill-rule="evenodd" clip-rule="evenodd" fill="#FFCF01" d="M181.479,55.256c-1.5,4.597-2.5,9.44-4.621,13.729
			c-3.045,6.158-7.931,8.199-14.547,7.261c-6.273-0.891-9.723-4.811-11.377-10.616c-1.636-5.735-0.905-11.306,1.502-16.666
			c3.594-8.001,10.909-12.319,18.067-10.788C176.951,39.553,180.647,45.702,181.479,55.256z M163.912,49.203
			c-1.154,3.491-3.024,6.902-3.118,10.361c-0.049,1.797,2.779,4.181,4.851,5.265c0.764,0.399,3.758-1.83,4.574-3.447
			C173.656,54.576,172.716,52.74,163.912,49.203z"/>
		<path fill-rule="evenodd" clip-rule="evenodd" fill="#FFCF01" d="M37.756,76.755c-6.597-0.015-13.715-9.633-13.844-18.707
			c-0.139-9.788,8.616-17.554,19.728-17.5c10.494,0.051,17.022,7.257,16.884,18.64C60.373,71.644,53.702,76.791,37.756,76.755z
			 M41.71,68.292c2.325-1.285,6.479-2.384,6.632-3.891c0.459-4.489-0.149-9.271-1.313-13.684c-0.883-3.345-4.262-3.915-7.491-3.104
			c-4.5,1.129-7.168,6.646-6.319,12.844C34.133,67.125,34.248,67.224,41.71,68.292z"/>
		<path fill-rule="evenodd" clip-rule="evenodd" fill="#FFCF01" d="M165.669,148.755c-9.675-0.457-17.416-9.332-16.906-19.382
			c0.496-9.772,8.439-16.028,19.61-15.444c8.315,0.436,14.447,8.303,13.937,17.885C181.747,142.338,175.012,149.196,165.669,148.755
			z M158.854,130.042c1.083,6.104,2.978,8.652,6.9,8.635c3.862-0.018,8.214-3.498,8.114-6.491c-0.146-4.43-5.383-9.206-10.354-8.262
			C161.642,124.28,160.389,127.907,158.854,130.042z"/>
	</g>
</g>
</svg>
